<svg width="33" height="32" viewBox="0 0 33 32" fill="none" xmlns="http://www.w3.org/2000/svg">
<g id="Frame 2609495">
<path id="Vector" d="M3.62354 6.65906C5.81176 4.0537 8.61075 2.31191 11.9943 1.60269C20.9008 -0.271395 29.2341 5.2884 30.6879 14.104C31.2836 17.7162 30.6054 21.1557 28.6083 24.2939C27.5105 26.021 25.1798 26.4803 23.3513 25.3448C21.7251 24.3343 21.0994 21.931 22.2272 20.4207C24.1045 17.8962 24.3218 15.1035 23.726 12.2042C22.0923 4.26684 12.2266 0.459865 5.47454 5.12671C4.81882 5.58237 4.24178 6.14827 3.62728 6.65906H3.62354Z" fill="#54BBE9"/>
<path id="Vector_2" d="M1.12183 13.9687C1.59965 10.9785 2.91088 8.45753 5.10367 6.54094C8.21506 3.82112 11.7339 3.11333 15.5824 4.40167C19.5717 5.73772 22.9164 10.1674 23.2905 14.6209C23.4535 16.5454 22.0793 18.4103 20.3199 18.6608C18.6901 18.8954 17.0825 17.5673 16.7751 15.6428C16.5084 13.9528 15.8935 12.4776 15.0231 11.0302C12.7266 7.22089 7.02236 7.20896 4.42583 9.26473C3.28499 10.1674 2.46269 11.3563 1.12183 13.9608V13.9687Z" fill="#54BBE9"/>
<path id="Vector_3" d="M0.5 9.59996C0.668582 9.03898 0.72103 8.41764 1.02073 7.93123C2.87139 4.89199 5.53874 2.69068 8.94036 1.32729C13.0463 -0.316596 17.2458 -0.455066 21.4155 1.0326C26.1095 2.70843 29.5186 5.76187 31.2719 10.2426C33.7444 16.5696 32.4595 22.3285 27.6343 27.2105C24.5923 30.2887 20.6999 31.8723 16.1444 31.993C12.0385 32.0995 8.40464 30.9918 5.17535 28.6733C3.35092 27.3596 1.8524 25.7299 0.784716 23.7878C0.58991 23.4363 0.646105 22.9605 0.694806 22.4812C4.05896 28.2863 9.12018 31.4107 16.1145 31.3148C20.816 31.2509 24.7646 29.3763 27.8103 26.0033C33.8606 19.3035 32.6168 9.40468 25.615 4.05762C18.0401 -1.7226 5.66611 0.0633078 0.814687 9.65677C0.709791 9.63547 0.608641 9.61772 0.503746 9.59641L0.5 9.59996Z" fill="#54BBE9"/>
<path id="Vector_4" d="M1.65423 16.1919C2.05695 13.0943 3.4814 10.8227 6.09491 9.54248C8.39338 8.41507 10.763 8.23771 12.9574 9.82272C14.7029 11.0849 14.9311 13.5191 13.5327 15.1652C12.1767 16.7682 9.79534 16.8091 8.3681 15.2593C6.09204 12.7867 3.75041 13.0546 1.89797 15.9996C1.86588 16.0518 1.80229 16.0807 1.65754 16.1963L1.65423 16.1919Z" fill="#54BBE9"/>
</g>
</svg>
