<svg width="20" height="18" viewBox="0 0 20 18" fill="none" xmlns="http://www.w3.org/2000/svg">
<path id="Vector" d="M16 7H13.5C12.95 7 12.5 7.45 12.5 8V12C12.5 12.55 12.95 13 13.5 13H16C16.55 13 17 12.55 17 12V8C17 7.45 16.55 7 16 7ZM15.5 11.5H14V8.5H15.5V11.5ZM7.5 13H3V10.5C3 9.95 3.45 9.5 4 9.5H6V8.5H3V7H6.5C7.05 7 7.5 7.45 7.5 8V9.5C7.5 10.05 7.05 10.5 6.5 10.5H4.5V11.5H7.5V13ZM10.75 9H9.25V7.5H10.75V9ZM10.75 12.5H9.25V11H10.75V12.5ZM20 4V16C20 17.1 19.1 18 18 18H2C0.9 18 0 17.1 0 16V4C0 2.9 0.9 2 2 2H5V0H7V2H13V0H15V2H18C19.1 2 20 2.9 20 4ZM18 16V4H10.75V5.5H9.25V4H2V16H9.25V14.5H10.75V16H18Z" fill="#003778"/>
</svg>
